PathFileType  4	(X/Y/Z) C:\Users\wagnerel85475\Documents\Thesis\opencap-core\Data\3375ffbc-daeb-4a43-b4f7-ac9899cd4c71\MarkerData\PreAugmentation
DataRate	CameraRate	NumFrames	NumMarkers	Units	OrigDataRate	OrigDataStartFrame	OrigNumFrames
60.0	60.0	18	20	m	60.0	1	300
Frame#	Time	Neck			RShoulder			RElbow			RWrist			LShoulder			LElbow			LWrist			midHip			RHip			RKnee			RAnkle			LHip			LKnee			LAnkle			LBigToe			LSmallToe			LHeel			RBigToe			RSmallToe			RHeel			
		X1	Y1	Z1	X2	Y2	Z2	X3	Y3	Z3	X4	Y4	Z4	X5	Y5	Z5	X6	Y6	Z6	X7	Y7	Z7	X8	Y8	Z8	X9	Y9	Z9	X10	Y10	Z10	X11	Y11	Z11	X12	Y12	Z12	X13	Y13	Z13	X14	Y14	Z14	X15	Y15	Z15	X16	Y16	Z16	X17	Y17	Z17	X18	Y18	Z18	X19	Y19	Z19	X20	Y20	Z20	

1	0.0000000	0.2314300	0.8653300	-0.1428100	0.2059600	0.8223300	0.0368800	0.1981500	0.5033800	0.1018500	0.3221600	0.2617600	0.1397500	0.1711800	0.8951700	-0.3165200	0.3174100	1.1845900	-0.4098800	0.3951300	1.4715400	-0.4263300	0.2578700	0.3188700	-0.1452900	0.2586600	0.3131100	-0.0178700	0.7984800	0.3369200	0.0019200	0.6967000	-0.1813800	0.0067500	0.2569100	0.3280100	-0.2775800	0.7494000	0.3238300	-0.3420300	0.6873800	-0.1819500	-0.3177500	0.9033000	-0.2212700	-0.3438300	0.8461800	-0.2205800	-0.3902500	0.6207300	-0.2335400	-0.3055900	0.8896800	-0.2290900	0.0317900	0.8433500	-0.2221900	0.0734100	0.6283300	-0.2304100	-0.0161300
2	0.0166667	0.2307700	0.8651900	-0.1427600	0.2056300	0.8190000	0.0374200	0.1880300	0.5013000	0.1065400	0.3226100	0.2613800	0.1397700	0.1711300	0.8986400	-0.3167400	0.2963200	1.1726300	-0.4278600	0.3952800	1.4621100	-0.4266800	0.2575900	0.3186000	-0.1450900	0.2583800	0.3131800	-0.0178000	0.7985200	0.3368000	0.0021800	0.6967400	-0.1812800	0.0068000	0.2566800	0.3280800	-0.2771700	0.7491000	0.3238500	-0.3418100	0.6874500	-0.1820500	-0.3177700	0.9033200	-0.2212100	-0.3438400	0.8458100	-0.2206900	-0.3903600	0.6209600	-0.2335500	-0.3056100	0.8895300	-0.2292200	0.0318000	0.8431600	-0.2222500	0.0735200	0.6277200	-0.2306400	-0.0163100
3	0.0333333	0.2321600	0.8611800	-0.1429400	0.2061400	0.8191300	0.0371300	0.1880100	0.5015700	0.1066600	0.3223100	0.2613800	0.1398800	0.1824500	0.8960800	-0.3121400	0.3314000	1.1768500	-0.4481700	0.3969500	1.4515100	-0.4258000	0.2578000	0.3188900	-0.1452300	0.2486000	0.3109800	-0.0132200	0.7984700	0.3369400	0.0019200	0.6967100	-0.1813600	0.0067500	0.2568700	0.3280400	-0.2775200	0.7493000	0.3238500	-0.3420500	0.6874100	-0.1819700	-0.3177500	0.9033200	-0.2212600	-0.3438300	0.8461900	-0.2205500	-0.3902500	0.6207600	-0.2336000	-0.3055800	0.8896700	-0.2290500	0.0317900	0.8433300	-0.2221600	0.0734100	0.6284200	-0.2304000	-0.0161200
4	0.0500000	0.2313200	0.8609400	-0.1428200	0.2054800	0.8190500	0.0374600	0.1879600	0.5011900	0.1066300	0.3226800	0.2609000	0.1399400	0.1824900	0.8994500	-0.3123000	0.3310500	1.1620200	-0.4570700	0.3963200	1.4423200	-0.4264000	0.2575400	0.3186600	-0.1450300	0.2483400	0.3111300	-0.0132000	0.7985300	0.3367700	0.0022100	0.6967100	-0.1812900	0.0067900	0.2566700	0.3281200	-0.2771100	0.7490400	0.3238500	-0.3417900	0.6874500	-0.1820700	-0.3177800	0.9033200	-0.2212500	-0.3438200	0.8374200	-0.2238400	-0.3869300	0.6209200	-0.2335800	-0.3056200	0.8895300	-0.2292300	0.0318000	0.8431600	-0.2222500	0.0735100	0.6277000	-0.2306500	-0.0163200
5	0.0666667	0.2321200	0.8609200	-0.1428000	0.2060200	0.8190500	0.0371900	0.1879300	0.5014800	0.1067900	0.3123300	0.2592000	0.1447000	0.1827300	0.8999300	-0.3121700	0.3320600	1.1528500	-0.4572900	0.3972100	1.4287700	-0.4261600	0.2586900	0.3225800	-0.1457000	0.2620100	0.3172400	-0.0101900	0.7984700	0.3369100	0.0019600	0.6966900	-0.1813400	0.0067400	0.2569000	0.3281200	-0.2775200	0.7574500	0.3257300	-0.3382300	0.6874200	-0.1819800	-0.3177500	0.9033300	-0.2212800	-0.3438200	0.8378500	-0.2237100	-0.3868200	0.6208100	-0.2335500	-0.3056000	0.8896600	-0.2290600	0.0317900	0.8433400	-0.2221600	0.0733900	0.6284400	-0.2303900	-0.0161300
6	0.0833333	0.2209500	0.8597500	-0.1384200	0.2056900	0.8189900	0.0374900	0.1877400	0.5011600	0.1068100	0.3130800	0.2583400	0.1448300	0.1821000	0.8992200	-0.3123100	0.3332800	1.1368600	-0.4662100	0.4074100	1.4142200	-0.4305800	0.2582100	0.3221900	-0.1454900	0.2482200	0.3111200	-0.0130700	0.7984500	0.3367400	0.0022300	0.6968100	-0.1812900	0.0068100	0.2565500	0.3281200	-0.2771500	0.7569200	0.3293100	-0.3376100	0.6874200	-0.1821200	-0.3178000	0.9034700	-0.2212600	-0.3437300	0.8452100	-0.2210400	-0.3831800	0.6208200	-0.2336300	-0.3056900	0.8896700	-0.2292700	0.0318200	0.8432900	-0.2222500	0.0735300	0.6277200	-0.2306300	-0.0163100
7	0.1000000	0.2329900	0.8566600	-0.1430200	0.2063100	0.8144500	0.0370200	0.1877500	0.5014000	0.1069500	0.3127900	0.2584000	0.1449800	0.1826600	0.8957300	-0.3121800	0.3358800	1.1205900	-0.4743300	0.4081200	1.4069600	-0.4303700	0.2583800	0.3225500	-0.1456900	0.2482100	0.3111100	-0.0131300	0.7982100	0.3405700	0.0023700	0.6972800	-0.1780300	0.0061100	0.2566100	0.3280200	-0.2775600	0.7490800	0.3274900	-0.3416200	0.6880400	-0.1854700	-0.3184000	0.9034500	-0.2212600	-0.3437600	0.8455900	-0.2208900	-0.3830900	0.6206900	-0.2336100	-0.3056400	0.8898100	-0.2290800	0.0318100	0.8434900	-0.2221600	0.0734100	0.6284800	-0.2303700	-0.0161100
8	0.1166667	0.2316800	0.8527200	-0.1427900	0.2056700	0.8142900	0.0373900	0.1875700	0.4964900	0.1066100	0.3180000	0.2543100	0.1478400	0.1718700	0.8901300	-0.3168100	0.3357700	1.1059000	-0.4829000	0.4089300	1.3820800	-0.4305700	0.2580000	0.3222300	-0.1454500	0.2479700	0.3112200	-0.0130800	0.7983000	0.3403900	0.0026300	0.6967700	-0.1812500	0.0068200	0.2564600	0.3281100	-0.2771400	0.7569200	0.3292900	-0.3375700	0.6874600	-0.1821100	-0.3178100	0.9035300	-0.2211900	-0.3437600	0.8452300	-0.2210500	-0.3832000	0.6208700	-0.2335500	-0.3056700	0.8896300	-0.2292900	0.0318200	0.8432700	-0.2222500	0.0735300	0.6276900	-0.2306200	-0.0163100
9	0.1333333	0.2323500	0.8527500	-0.1427600	0.2057900	0.8188000	0.0372900	0.1875500	0.4967600	0.1067400	0.3232300	0.2520700	0.1485100	0.1831500	0.8873800	-0.3121800	0.3389800	1.0926700	-0.4997500	0.4309400	1.3568100	-0.4380700	0.2478300	0.3204900	-0.1413300	0.2497300	0.3154800	-0.0136100	0.7982800	0.3336700	0.0024100	0.6972700	-0.1780300	0.0061100	0.2562600	0.3279500	-0.2774800	0.7572200	0.3292900	-0.3378500	0.6873500	-0.1819900	-0.3177300	0.9035100	-0.2212900	-0.3437500	0.8456500	-0.2209500	-0.3830700	0.6206700	-0.2336800	-0.3056200	0.8897400	-0.2290600	0.0318200	0.8434100	-0.2221100	0.0734300	0.6285000	-0.2303400	-0.0161100
10	0.1500000	0.2316900	0.8526000	-0.1428000	0.2054200	0.8186800	0.0376200	0.1875300	0.4965500	0.1066600	0.3176800	0.2544400	0.1480400	0.1829900	0.8826600	-0.3122400	0.3411200	1.0802900	-0.5173800	0.4528700	1.3348000	-0.4462300	0.2475300	0.3201900	-0.1411300	0.2495200	0.3157000	-0.0136200	0.7983800	0.3366400	0.0022800	0.6973600	-0.1779700	0.0061500	0.2562200	0.3280700	-0.2770700	0.7489300	0.3238800	-0.3417900	0.6873900	-0.1820100	-0.3177500	0.9035800	-0.2212700	-0.3437300	0.8452700	-0.2210500	-0.3831700	0.6208400	-0.2336500	-0.3056200	0.8982200	-0.2298800	0.0341100	0.8432400	-0.2222000	0.0735700	0.6277600	-0.2306100	-0.0163300
11	0.1666667	0.2320100	0.8489300	-0.1425600	0.2059600	0.8187600	0.0373100	0.1876000	0.4968100	0.1068000	0.3223000	0.2529700	0.1485300	0.1719500	0.8779800	-0.3166000	0.3438000	1.0527700	-0.5255100	0.4661000	1.3005100	-0.4577800	0.2474800	0.3204600	-0.1412100	0.2493200	0.3156900	-0.0134600	0.7983300	0.3368300	0.0020200	0.6973300	-0.1780200	0.0061100	0.2559800	0.3279000	-0.2774000	0.7488400	0.3275000	-0.3417200	0.6873900	-0.1819100	-0.3177100	0.9035400	-0.2213300	-0.3437400	0.8456500	-0.2209500	-0.3830600	0.6208100	-0.2336900	-0.3056100	0.8900300	-0.2327600	0.0311400	0.8434900	-0.2220800	0.0734300	0.6285800	-0.2303400	-0.0161100
12	0.1833333	0.2319000	0.8442700	-0.1426700	0.2053700	0.8217800	0.0375000	0.1875800	0.4965700	0.1067400	0.3065900	0.2534300	0.1526800	0.1725700	0.8651200	-0.3167200	0.3448100	1.0295200	-0.5340300	0.4674800	1.2817500	-0.4665700	0.2474400	0.3202300	-0.1410800	0.2495400	0.3158900	-0.0135800	0.7984700	0.3366900	0.0022500	0.6973800	-0.1780200	0.0061500	0.2560800	0.3280200	-0.2770100	0.7487400	0.3238200	-0.3418100	0.6874700	-0.1820300	-0.3177500	0.9035800	-0.2212300	-0.3437300	0.8452900	-0.2211000	-0.3831800	0.6210300	-0.2336800	-0.3055800	0.8982500	-0.2299000	0.0341100	0.8432600	-0.2222000	0.0735800	0.6277200	-0.2306800	-0.0163300
13	0.2000000	0.2327800	0.8441800	-0.1426800	0.2059000	0.8218400	0.0371700	0.1879700	0.5003600	0.1065100	0.3058700	0.2543700	0.1526100	0.1846600	0.8628000	-0.3122900	0.3363500	1.0110500	-0.5385700	0.4790900	1.2444900	-0.4697700	0.2472700	0.3206000	-0.1412500	0.2373500	0.3135300	-0.0171800	0.8073800	0.3388300	0.0052200	0.6969100	-0.1813300	0.0067600	0.2450500	0.3255400	-0.2732200	0.7491500	0.3238000	-0.3420300	0.6869500	-0.1783600	-0.3170500	0.9034400	-0.2212700	-0.3438200	0.8378800	-0.2238000	-0.3868000	0.6207800	-0.2337000	-0.3056000	0.8984400	-0.2297100	0.0341000	0.8435500	-0.2220400	0.0734500	0.6286300	-0.2303300	-0.0161200
14	0.2166667	0.2316100	0.8405700	-0.1425100	0.2053400	0.8216800	0.0375400	0.1878200	0.5001200	0.1064100	0.2956000	0.2524300	0.1493300	0.1956000	0.8629900	-0.3166100	0.3269800	0.9764000	-0.5435700	0.4607000	1.2190500	-0.4792400	0.2473800	0.3202700	-0.1411000	0.2377400	0.3134900	-0.0173400	0.8075000	0.3387200	0.0054700	0.6974000	-0.1779600	0.0061500	0.2560800	0.3280300	-0.2769300	0.7489400	0.3238100	-0.3417500	0.6870500	-0.1784000	-0.3170700	0.9034600	-0.2211800	-0.3437900	0.8536000	-0.2213400	-0.3859800	0.6208500	-0.2306000	-0.3049100	0.8984900	-0.2299900	0.0341100	0.8437000	-0.2190700	0.0729100	0.6275800	-0.2306600	-0.0163700
15	0.2333333	0.2324800	0.8407600	-0.1425900	0.2059000	0.8217600	0.0372100	0.1878700	0.5004700	0.1065800	0.3160500	0.2587000	0.1530600	0.1838800	0.8704900	-0.3207100	0.3309200	0.9630000	-0.5599900	0.4523700	1.1862700	-0.4915000	0.2474500	0.3206900	-0.1413300	0.2375100	0.3135700	-0.0172400	0.8073600	0.3388500	0.0052000	0.6982600	-0.1817500	0.0054300	0.2558900	0.3278900	-0.2774500	0.7574900	0.3255400	-0.3382300	0.6870600	-0.1783000	-0.3170400	0.9034300	-0.2212300	-0.3438000	0.8540600	-0.2211900	-0.3858700	0.6207600	-0.2305600	-0.3049700	0.8987000	-0.2298000	0.0341100	0.8439900	-0.2189800	0.0727700	0.6284600	-0.2304300	-0.0161300
16	0.2500000	0.2318100	0.8406600	-0.1426200	0.2054700	0.8217100	0.0374900	0.1878800	0.5000900	0.1064300	0.3008100	0.2505400	0.1496400	0.1838200	0.8699100	-0.3208900	0.3317700	0.9347800	-0.5690100	0.4949200	1.1623100	-0.4984700	0.2472400	0.3205000	-0.1411200	0.2375000	0.3136300	-0.0173900	0.8074600	0.3387000	0.0055000	0.6982700	-0.1816800	0.0054800	0.2560300	0.3281200	-0.2769600	0.7571200	0.3255400	-0.3379500	0.6869900	-0.1784200	-0.3170800	0.9034700	-0.2211700	-0.3437600	0.8536600	-0.2213200	-0.3859600	0.6207100	-0.2306800	-0.3049100	0.8985100	-0.2300200	0.0341400	0.8436500	-0.2190800	0.0729300	0.6275600	-0.2307200	-0.0163700
17	0.2666667	0.2324200	0.8334800	-0.1423100	0.2060300	0.8218100	0.0371100	0.1878300	0.5004200	0.1066300	0.3009800	0.2504200	0.1499000	0.1841800	0.8665400	-0.3207600	0.3259900	0.9045000	-0.5814300	0.4990500	1.1173300	-0.5143700	0.2472100	0.3206700	-0.1413200	0.2371600	0.3133000	-0.0173300	0.7993900	0.3369600	0.0094600	0.6982000	-0.1746500	0.0054100	0.2449800	0.3255300	-0.2732400	0.7489600	0.3234300	-0.3346200	0.6870000	-0.1783000	-0.3170600	0.9033900	-0.2212300	-0.3437600	0.8456600	-0.2209400	-0.3830900	0.6206100	-0.2305700	-0.3049700	0.8990200	-0.2268900	0.0334600	0.8439000	-0.2189100	0.0727800	0.6288000	-0.2276700	-0.0167600
18	0.2833333	0.2316200	0.8333400	-0.1422500	0.2055400	0.8217700	0.0374400	0.1878100	0.5000000	0.1065200	0.3111000	0.2520800	0.1529800	0.1841900	0.8659300	-0.3208900	0.3374100	0.8827200	-0.5854100	0.5099700	1.0990300	-0.5184800	0.2471100	0.3204400	-0.1411300	0.2256200	0.3110600	-0.0211500	0.7990700	0.3405700	0.0101600	0.6994100	-0.1783000	0.0047900	0.2559600	0.3280000	-0.2769200	0.7486600	0.3233900	-0.3343200	0.6869600	-0.1783700	-0.3171300	0.9034300	-0.2211000	-0.3437800	0.8534100	-0.2146300	-0.3860400	0.6207200	-0.2305800	-0.3049500	0.8984900	-0.2233000	0.0342300	0.8436900	-0.2189400	0.0730000	0.6373600	-0.2248700	-0.0137800
